<?xml version="1.0" encoding="UTF-8"?>
<svg width="700pt" height="700pt" version="1.1" viewBox="0 0 700 700" xmlns="http://www.w3.org/2000/svg" xmlns:xlink="http://www.w3.org/1999/xlink">
<g>
  <path d="m304.77 235.59v49.23c0 13.598-11.02 24.617-24.613 24.617-13.598 0-24.617-11.02-24.617-24.617v-49.23h-49.23c-13.594 0-24.617-11.02-24.617-24.613s11.023-24.617 24.617-24.617h49.23v-49.23c0-13.594 11.02-24.613 24.617-24.613 13.594 0 24.613 11.02 24.613 24.613v49.23h49.23c13.594 0 24.617 11.023 24.617 24.617s-11.023 24.613-24.617 24.613zm153.68 84.105 151.91 151.9c19.223 19.219 19.195 50.414 0.027344 69.582-19.211 19.207-50.328 19.234-69.586-0.027343l-151.91-151.9c-80.496 49.211-187.08 38.988-256.74-30.664-81.637-81.633-81.637-213.99 0-295.62 81.637-81.633 214-81.633 295.63 0 69.66 69.656 79.883 176.23 30.668 256.73zm-291.52 4.1172c-62.43-62.426-62.43-163.64 0-226.06 62.426-62.426 163.64-62.426 226.07 0 62.426 62.426 62.426 163.64 0 226.06-62.43 62.426-163.65 62.426-226.07 0z" fill-rule="evenodd"/>
</g>
</svg>
