<svg width="555" height="555" xmlns="http://www.w3.org/2000/svg" version="1.1">

 <g>
  <title>Layer 1</title>
  <path id="svg_24" fill-rule="evenodd" d="m235.67968,234.68092l0,49.23c0,13.598 -11.02,24.617 -24.613,24.617c-13.598,0 -24.617,-11.02 -24.617,-24.617l0,-49.23l-49.23,0c-13.594,0 -24.617,-11.02 -24.617,-24.613s11.023,-24.617 24.617,-24.617l49.23,0l0,-49.23c0,-13.594 11.02,-24.613 24.617,-24.613c13.594,0 24.613,11.02 24.613,24.613l0,49.23l49.23,0c13.594,0 24.617,11.023 24.617,24.617s-11.023,24.613 -24.617,24.613l-49.23,0zm153.68,84.105l151.91,151.9c19.223,19.219 19.195,50.414 0.02734,69.582c-19.211,19.207 -50.328,19.234 -69.586,-0.02734l-151.91,-151.9c-80.496,49.211 -187.08,38.988 -256.74,-30.664c-81.637,-81.633 -81.637,-213.99 0,-295.62c81.637,-81.633 214,-81.633 295.63,0c69.66,69.656 79.883,176.23 30.668,256.73l0.00066,-0.00066zm-291.52,4.1172c-62.43,-62.426 -62.43,-163.64 0,-226.06c62.426,-62.426 163.64,-62.426 226.07,0c62.426,62.426 62.426,163.64 0,226.06c-62.43,62.426 -163.65,62.426 -226.07,0z"/>
 </g>
</svg>