<?xml version="1.0" encoding="UTF-8"?>
<svg width="700pt" height="700pt" version="1.1" viewBox="0 0 700 700" xmlns="http://www.w3.org/2000/svg" xmlns:xlink="http://www.w3.org/1999/xlink">
 <g>
  <path d="m459.7 318.28 151.91 151.9c19.223 19.223 19.195 50.414 0.027343 69.582-19.211 19.207-50.328 19.234-69.586-0.023438l-151.91-151.9c-80.496 49.211-187.08 38.992-256.74-30.664-81.637-81.633-81.637-213.98 0-295.62 81.637-81.633 214-81.633 295.64 0 69.656 69.652 79.879 176.23 30.664 256.73zm-291.52 4.1133c-62.43-62.426-62.43-163.64 0-226.06 62.426-62.426 163.64-62.426 226.07 0 62.426 62.426 62.426 163.64 0 226.06-62.43 62.426-163.65 62.426-226.07 0zm187.07-88.219c13.594 0 24.617-11.023 24.617-24.617s-11.023-24.613-24.617-24.613h-147.69c-13.594 0-24.617 11.02-24.617 24.613s11.023 24.617 24.617 24.617z" fill-rule="evenodd"/>
 </g>
</svg>
